# xmcd
#
# Track frame offsets:
#	150
#	28750
#	65455
#	99536
#	130775
#	148948
#	180287
#
# Disc length: 2792 seconds
#
# Revision: 0
# Processed by: cddbd v1.5.2PL0 Copyright (c) Steve Scherf et al.
# Submitted via: EasyCDDAExtractor 16.0.9.1
#
DISCID=5d0ae607
DTITLE=Barry White - The Man
DYEAR=1978
DGENRE=Soul
TTITLE0=Lock At Her
TTITLE1=Your Sweetness Is My Weakness
TTITLE2=Sha La La Means I Love You
TTITLE3=September When I Firts Met You
TTITLE4=It´S Only Love Doing Its Thing
TTITLE5=Just The Way You Are
TTITLE6=Early Years
EXTD=
EXTT0=
EXTT1=
EXTT2=
EXTT3=
EXTT4=
EXTT5=
EXTT6=
PLAYORDER=
